<?xml version="1.0" encoding="utf-8"?>
<!-- Generator: Adobe Illustrator 22.1.0, SVG Export Plug-In . SVG Version: 6.00 Build 0)  -->
<svg version="1.1" id="图层_1" xmlns="http://www.w3.org/2000/svg" xmlns:xlink="http://www.w3.org/1999/xlink" x="0px" y="0px"
	 viewBox="0 0 41 49" style="enable-background:new 0 0 41 49;" xml:space="preserve">
<path id="data" d="M19.6,0C9.3,0,0,3.1,0,10v29.1C0,45.9,9.3,49,19.6,49S41,45.9,41,39.1V10C41,3.1,29.9,0,19.6,0z M37.9,39.1
	c0,3.8-8.2,6.9-18.3,6.9S3.1,42.8,3.1,39.1v-5.7c3.2,3.3,9,4.9,16.5,4.9s15.2-1.7,18.3-4.9V39.1z M37.9,29.9L37.9,29.9
	C37.9,29.9,37.9,29.9,37.9,29.9c0,3.8-8.2,6.9-18.3,6.9S3.1,33.7,3.1,29.9c0,0,0,0,0-0.1h0v-5.7c3.2,3.3,9,5,16.5,5s15.2-1.7,18.3-5
	V29.9z M37.9,20.7L37.9,20.7C37.9,20.7,37.9,20.7,37.9,20.7c0,3.8-8.2,6.9-18.3,6.9S3.1,24.5,3.1,20.7c0,0,0,0,0,0h0v-5.3
	c4,3.1,9.5,4.5,16.5,4.5s14.3-1.4,18.3-4.5V20.7z M19.6,16.9C9.5,16.9,3.1,13.8,3.1,10s6.4-6.9,16.5-6.9S37.9,6.2,37.9,10
	S29.7,16.9,19.6,16.9z M33.4,41.4c0.8,0,1.5-0.7,1.5-1.5c0-0.8-0.7-1.5-1.5-1.5c-0.8,0-1.5,0.7-1.5,1.5c0,0,0,0,0,0
	C31.8,40.7,32.5,41.3,33.4,41.4C33.4,41.4,33.4,41.4,33.4,41.4L33.4,41.4z M33.4,32.2c0.8,0,1.5-0.7,1.5-1.5s-0.7-1.5-1.5-1.5
	c-0.8,0-1.5,0.7-1.5,1.5c0,0,0,0,0,0C31.8,31.5,32.5,32.2,33.4,32.2L33.4,32.2z M33.4,23c0.8,0,1.5-0.7,1.5-1.5s-0.7-1.5-1.5-1.5
	c-0.8,0-1.5,0.7-1.5,1.5c0,0,0,0,0,0C31.8,22.3,32.5,23,33.4,23C33.4,23,33.4,23,33.4,23L33.4,23z"/>
</svg>
