<?xml version="1.0" encoding="utf-8"?>
<!-- Generator: Adobe Illustrator 22.1.0, SVG Export Plug-In . SVG Version: 6.00 Build 0)  -->
<svg version="1.1" id="组_2" xmlns="http://www.w3.org/2000/svg" xmlns:xlink="http://www.w3.org/1999/xlink" x="0px" y="0px"
	 viewBox="0 0 52 52" style="enable-background:new 0 0 52 52;" xml:space="preserve">
<circle cx="26" cy="26" r="5.1"/>
<path id="形状_34" d="M45.7,0.1v6.3H52l-7.3,7.3h-6.3V7.4L45.7,0.1z"/>
<g id="形状_33">
	<polygon points="26.5,26.6 24.5,24.4 42.1,8.6 44.2,10.8 	"/>
</g>
<path d="M48.1,19.6c0.6,2,0.9,4.2,0.9,6.4c0,12.7-10.3,23-23,23C13.3,49,3,38.7,3,26C3,13.3,13.3,3,26,3c2.7,0,5.4,0.5,7.8,1.4
	l1-2.8C32.1,0.5,29.1,0,26,0C11.7,0,0,11.7,0,26c0,14.3,11.7,26,26,26c14.3,0,26-11.7,26-26c0-2.5-0.4-4.9-1-7.2L48.1,19.6z"/>
<path d="M39.2,22.2c0.4,1.2,0.6,2.5,0.6,3.8c0,7.6-6.2,13.8-13.8,13.8c-7.6,0-13.8-6.2-13.8-13.8c0-7.6,6.2-13.8,13.8-13.8
	c1.6,0,3.2,0.3,4.7,0.8l0.5-1.4c-1.6-0.6-3.4-0.9-5.2-0.9c-8.4,0-15.2,6.8-15.2,15.2c0,8.4,6.8,15.2,15.2,15.2
	c8.4,0,15.2-6.8,15.2-15.2c0-1.5-0.2-2.9-0.6-4.2L39.2,22.2z"/>
</svg>
