<?xml version="1.0" encoding="utf-8"?>
<!-- Generator: Adobe Illustrator 22.1.0, SVG Export Plug-In . SVG Version: 6.00 Build 0)  -->
<svg version="1.1" id="图层_1" xmlns="http://www.w3.org/2000/svg" xmlns:xlink="http://www.w3.org/1999/xlink" x="0px" y="0px"
	 viewBox="0 0 52 45" style="enable-background:new 0 0 52 45;" xml:space="preserve">
<path id="stack" d="M51.9,26.4L45.4,2.3C45,0.9,43.7,0,42.2,0H9.8C8.3,0,7,0.9,6.6,2.3L0.1,26.4C0,26.7,0,27,0,27.3v11.2
	C0,42.1,2.9,45,6.5,45h39c3.6,0,6.5-2.9,6.5-6.4V27.3C52,27,52,26.7,51.9,26.4z M48.8,38.6c0,1.8-1.5,3.2-3.2,3.2h-39
	c-1.8,0-3.2-1.4-3.2-3.2V27.3L9.8,3.2h32.5l6.5,24.1V38.6z M38.6,6.4H13.4c-0.7,0-1.4,0.5-1.6,1.2L6.2,26.9c-0.1,0.5,0,1,0.3,1.4
	c0.3,0.4,0.8,0.6,1.3,0.6h7.4l2.4,4.7c0.6,1.1,1.7,1.8,2.9,1.8h11c1.2,0,2.3-0.7,2.9-1.8l2.4-4.7h7.4c0.5,0,1-0.2,1.3-0.6
	c0.3-0.4,0.4-0.9,0.3-1.4L40.2,7.6C40,6.9,39.3,6.4,38.6,6.4L38.6,6.4z M39.5,25.7h-2.7c-1.2,0-2.4,0.7-2.9,1.8l-2.3,4.7h-11
	l-2.3-4.7c-0.6-1.1-1.7-1.8-2.9-1.8H8.7L13.4,8h25.2l4.8,17.7H39.5L39.5,25.7z"/>
</svg>
