<?xml version="1.0" encoding="utf-8"?>
<!-- Generator: Adobe Illustrator 22.1.0, SVG Export Plug-In . SVG Version: 6.00 Build 0)  -->
<svg version="1.1" id="图层_1" xmlns="http://www.w3.org/2000/svg" xmlns:xlink="http://www.w3.org/1999/xlink" x="0px" y="0px"
	 viewBox="0 0 50 39" style="enable-background:new 0 0 50 39;" xml:space="preserve">
<path id="study" d="M50,9.6c0-2.2-1.5-4.2-3.6-4.7L26,0.1C25.7,0,25.3,0,25,0c-0.4,0-0.7,0-1.1,0.1L3.6,4.9C1,5.6-0.5,8.3,0.2,10.9
	c0.4,1.7,1.8,3,3.5,3.5l4.2,1v13.6c0,4.3,4.8,8,17.2,8s17.2-3.8,17.2-8V15.3l4.2-1C48.5,13.8,50,11.9,50,9.6z M39.1,28.9
	c0,1.8-4.7,4.8-14.1,4.8s-14.1-3-14.1-4.8V16.1l13,3.1c0.3,0.1,0.7,0.1,1,0.1c0.4,0,0.7,0,1.1-0.1l13-3.1V28.9L39.1,28.9z M25.4,17
	c-0.2,0.1-0.5,0.1-0.7,0L4.3,11.2C3.6,11,3.1,10.4,3.1,9.6c0-0.7,0.5-1.4,1.2-1.6l20.3-4.8c0.2-0.1,0.5-0.1,0.7,0l20.3,4.8
	c0.7,0.2,1.2,0.8,1.2,1.6c0,0.7-0.5,1.4-1.2,1.6L25.4,17z M46,17.1v13.5c0,0.6,0.4,1,1,1s1-0.4,1-1V17.1c0-0.6-0.4-1-1-1
	C46.4,16.1,46,16.5,46,17.1L46,17.1z M47,32.7c-1.1,0-2,3.1-2,4.2c0,1.1,0.9,2,2,2s2-0.9,2-2C49,35.7,48.1,32.7,47,32.7L47,32.7z"/>
</svg>
