<?xml version="1.0" encoding="utf-8"?>
<!-- Generator: Adobe Illustrator 22.1.0, SVG Export Plug-In . SVG Version: 6.00 Build 0)  -->
<svg version="1.1" id="图层_1" xmlns="http://www.w3.org/2000/svg" xmlns:xlink="http://www.w3.org/1999/xlink" x="0px" y="0px"
	 viewBox="0 0 43.1 43" style="enable-background:new 0 0 43.1 43;" xml:space="preserve">
<path id="wallet" d="M24.8,23.6c-1.5,0-2.8,1.2-2.8,2.8c0,1.5,1.2,2.8,2.7,2.8c1.5,0,2.8-1.2,2.8-2.8c0,0,0,0,0,0
	C27.5,24.8,26.3,23.6,24.8,23.6C24.8,23.6,24.8,23.6,24.8,23.6z M39.9,16.7L39.9,16.7l0-12.5C39.9,1.9,38,0,35.8,0c0,0,0,0,0,0H7.6
	C3.4,0,0,3.4,0,7.6v27.7C0,39.6,3.4,43,7.6,43h24.8c4.2,0,7.6-3.4,7.6-7.6v-2.1h0c4.3-3.8,4.2-11,0.4-15.3
	C40,17.7,39.7,17.4,39.9,16.7L39.9,16.7z M7.6,2.8h28.2c0.8,0,1.4,0.6,1.4,1.4v8.6c-0.4-0.2-0.9-0.3-1.4-0.3l0,0V5.6
	c0-0.8-0.6-1.4-1.4-1.4H5.5c-0.8,0-1.4,0.6-1.4,1.4V11c-0.9-0.9-1.4-2.1-1.4-3.4C2.7,5,4.9,2.8,7.6,2.8L7.6,2.8z M34.4,6.9H5.5V5.6
	h28.9V6.9z M34.4,8.3v1.4H5.5V8.3H34.4z M34.4,11.1v1.4H7.6c-0.7,0-1.4-0.2-2.1-0.5v-0.9H34.4z M37.1,35.4c0,2.7-2.1,4.8-4.8,4.9
	H7.6c-2.7,0-4.8-2.2-4.8-4.9V13.5c1.3,1.1,3.1,1.7,4.8,1.8h28.2c0.8,0,1.4,0.6,1.4,1.4c0,0,0,0,0,0v2.8H24.7c-3.8,0-6.9,3.1-6.9,6.9
	s3.1,6.9,6.9,6.9h12.4L37.1,35.4L37.1,35.4z M38.9,30.5H24.8c-2.3,0-4.2-1.9-4.2-4.2s1.9-4.2,4.2-4.2h12.4c0.9,0,1.7-0.4,2.2-1.1
	c0.1-0.2,0.3-0.4,0.3-0.6c0,0,0-0.1,0.1-0.1C42,23.5,41.7,27.8,38.9,30.5z"/>
</svg>
