<?xml version="1.0" encoding="utf-8"?>
<!-- Generator: Adobe Illustrator 22.1.0, SVG Export Plug-In . SVG Version: 6.00 Build 0)  -->
<svg version="1.1" id="图层_1" xmlns="http://www.w3.org/2000/svg" xmlns:xlink="http://www.w3.org/1999/xlink" x="0px" y="0px"
	 viewBox="0 0 48 48" style="enable-background:new 0 0 48 48;" xml:space="preserve">
<path id="world" d="M24,0C10.7,0,0,10.7,0,24s10.7,24,24,24s24-10.7,24-24S37.3,0,24,0z M44.9,23.2h-9.3c-0.1-3.3-0.7-6.6-1.8-9.7
	c2.1-0.9,4-2,5.8-3.4C42.8,13.7,44.7,18.4,44.9,23.2z M23.1,44.9c-2.7-2.2-4.8-5-6.3-8.2c2.1-0.6,4.2-1,6.4-1.1L23.1,44.9L23.1,44.9
	z M24.9,3.1c3,2.6,5.4,5.8,6.9,9.5c-2.3,0.8-4.6,1.2-7,1.3L24.9,3.1L24.9,3.1L24.9,3.1z M27.4,3.4C31.6,4.1,35.5,6,38.5,9
	c-1.6,1.3-3.4,2.3-5.3,3.1C31.9,8.8,29.9,5.9,27.4,3.4z M23.2,3.1v10.8c-2.4-0.1-4.7-0.5-7-1.3C17.7,9,20.1,5.7,23.2,3.1L23.2,3.1
	L23.2,3.1z M14.8,12.1c-1.9-0.8-3.7-1.8-5.3-3.1c3-3,6.9-4.9,11.1-5.6C18.1,5.9,16.1,8.8,14.8,12.1L14.8,12.1z M15.6,14
	c2.4,0.8,5,1.3,7.6,1.4v7.8H14C14,20.1,14.6,17,15.6,14L15.6,14z M23.2,24.8v9.3c-2.4,0.1-4.8,0.5-7,1.2c-1.4-3.3-2.1-6.9-2.2-10.5
	H23.2L23.2,24.8z M20.6,44.6c-3.7-0.6-7.3-2.3-10.1-4.7c1.5-1.1,3.2-2,4.9-2.6C16.7,40,18.4,42.5,20.6,44.6L20.6,44.6z M24.8,44.9
	v-9.2c2.2,0.1,4.3,0.4,6.4,1.1C29.7,39.8,27.5,42.6,24.8,44.9L24.8,44.9z M32.6,37.2c1.7,0.7,3.4,1.6,4.9,2.6
	c-2.9,2.5-6.4,4.1-10.1,4.7C29.6,42.5,31.3,40,32.6,37.2L32.6,37.2z M31.8,35.3c-2.3-0.7-4.6-1.1-7-1.2v-9.3H34
	C33.9,28.4,33.2,32,31.8,35.3L31.8,35.3z M24.8,23.2v-7.8c2.6-0.1,5.1-0.5,7.6-1.4c1,3,1.6,6.1,1.7,9.2H24.8L24.8,23.2z M8.4,10.1
	c1.8,1.4,3.7,2.5,5.8,3.4c-1.1,3.1-1.7,6.4-1.8,9.7H3.1C3.3,18.4,5.2,13.7,8.4,10.1L8.4,10.1z M3.1,24.8h9.3
	c0.1,3.8,0.9,7.5,2.3,11.1c-1.9,0.8-3.8,1.8-5.5,3C5.5,35.1,3.3,30.1,3.1,24.8L3.1,24.8z M38.7,38.8c-1.7-1.2-3.5-2.2-5.5-3
	c1.5-3.5,2.2-7.3,2.3-11.1h9.3C44.7,30.1,42.5,35.1,38.7,38.8L38.7,38.8z"/>
</svg>
